<?xml version="1.0" standalone="no"?>
<!DOCTYPE svg PUBLIC "-//W3C//DTD SVG 20010904//EN"
 "http://www.w3.org/TR/2001/REC-SVG-20010904/DTD/svg10.dtd">
<svg version="1.0" xmlns="http://www.w3.org/2000/svg"
 width="400.000000pt" height="400.000000pt" viewBox="0 0 400.000000 400.000000"
 preserveAspectRatio="xMidYMid meet">
<metadata>
Created by potrace 1.11, written by Peter Selinger 2001-2013
</metadata>
<g transform="translate(0.000000,400.000000) scale(0.100000,-0.100000)"
fill="#000000" stroke="none">
<path d="M1807 3710 c-187 -23 -401 -87 -561 -165 -613 -301 -993 -938 -963
-1615 7 -151 25 -268 63 -398 184 -640 700 -1104 1367 -1229 128 -24 446 -24
574 0 733 137 1273 677 1410 1410 24 128 24 446 0 574 -137 730 -682 1277
-1404 1408 -103 19 -388 28 -486 15z m493 -170 c323 -66 571 -199 806 -434
233 -234 365 -477 435 -806 19 -89 23 -135 23 -300 0 -165 -4 -211 -23 -300
-70 -329 -202 -572 -435 -806 -236 -236 -474 -364 -808 -436 -149 -32 -447
-32 -596 0 -334 72 -572 200 -808 436 -233 234 -365 477 -435 806 -33 152 -33
448 0 600 46 215 126 406 242 581 77 113 244 289 358 374 211 159 489 272 752
305 120 15 369 5 489 -20z"/>
<path d="M840 2783 c0 -5 104 -410 232 -900 l232 -893 127 0 c113 0 128 2 133
18 3 9 96 341 206 737 111 395 203 721 205 723 5 5 -6 43 210 -738 97 -349
183 -659 191 -688 l15 -52 127 0 128 0 235 898 235 897 -129 3 c-72 1 -131 1
-134 -1 -2 -2 -78 -329 -170 -726 -92 -397 -170 -718 -173 -714 -4 5 -96 331
-205 726 l-198 717 -132 0 -132 0 -198 -717 c-109 -395 -201 -721 -205 -725
-3 -4 -68 261 -144 590 -76 328 -151 654 -168 725 l-30 127 -129 0 c-71 0
-129 -3 -129 -7z"/>
</g>
</svg>
